<?xml version="1.0" encoding="utf-8"?>
<!-- Generator: Adobe Illustrator 18.1.1, SVG Export Plug-In . SVG Version: 6.00 Build 0)  -->
<svg version="1.1" id="Layer_1" xmlns="http://www.w3.org/2000/svg" xmlns:xlink="http://www.w3.org/1999/xlink" x="0px" y="0px"
	 viewBox="0 0 195 48.7" enable-background="new 0 0 195 48.7" xml:space="preserve">
<g>
	<path fill="#474747" d="M32.8,33.7c3.4,2.1,8,0.9,11.4-0.5c0.4-0.2,0.8-0.4,1.3-0.6c3.3,1.3,7,2.7,10.3,2.7l0,0c0,0,0.1,0,0.1,0
		c1.6,0,3.3-0.6,5-1.8c0.8-0.6,1.6-1.3,2.3-2.1l-0.5,0.9c-0.2,0.4-0.3,0.6-0.3,0.8c0,0.9,0.2,1.5,0.5,1.8c0.3,0.3,0.9,0.4,1.8,0.4
		c1.5,0,3-0.6,4.4-1.8c0.4-0.3,1.1-1.1,2.2-2.4l-2.1,3.9h2.8c0.7-1.3,1.8-2.7,3.1-4.3c0.4-0.5,1-1.1,1.8-2c0.3,0.9,0.6,1.4,0.7,1.7
		c0.5,0.8,1.1,1.2,1.9,1.2c0.7,0,1.4-0.2,2-0.5c0.6-0.3,1.1-0.7,1.3-1.2l0.1-0.2v-0.6c-0.2,0.4-0.4,0.7-0.8,1
		c-0.4,0.3-0.7,0.4-1,0.4c-0.3,0-0.5-0.1-0.7-0.4c-0.2-0.2-0.3-0.5-0.3-0.8c0-0.5,0.2-0.9,0.5-1.2c0.2-0.2,0.3-0.3,0.4-0.4
		c0.2-0.1,0.2-0.3,0.2-0.5c0-0.2-0.1-0.3-0.3-0.4c-0.2-0.1-0.4-0.2-0.7-0.2c-1.4,0-2.9,0.9-4.5,2.7h-0.3l1.2-2.4h-3l-1.3,2.4
		c-0.8,0.9-1.4,1.6-1.9,2.1c-0.5,0.5-0.9,1-1.2,1.3c-1.4,1.3-2.5,2-3.3,2c-0.2,0-0.4-0.1-0.5-0.2c-0.1-0.1-0.2-0.3-0.2-0.4
		c0-0.4,0.2-1,0.5-1.6l2.7-4.8l3,0l0-0.4l-2.9,0l1.8-3.3H67l-1.8,3.3l-1.7,0l0,0.4h1.7l-0.9,1.6c-0.8,0.9-1.4,1.5-1.9,2
		c-0.9,0.9-1.7,1.6-2.4,2.1c-0.9,0.6-1.8,1-2.5,1c-0.5,0-1-0.2-1.2-0.6c-0.2-0.3-0.3-0.8-0.3-1.3c0-0.6,0.4-1,1.3-1.3
		c0.9-0.2,1.8-0.6,2.7-1c1.3-0.7,2-1.4,2-2c0-0.6-0.2-1-0.5-1.2c-0.3-0.2-0.9-0.3-1.7-0.3c-1.9,0-3.5,0.6-4.9,1.8
		c-1.4,1.2-2,2.6-2,4.2c0,0.8,0.3,1.5,0.8,2c0.1,0.1,0.3,0.2,0.4,0.3c-2.5-0.4-5.4-1.4-8.2-2.5c3.6-2.1,6.4-5.3,8.6-8.9
		c1.2-1.9,2.3-4,3.6-5.9c1.6-0.6,3.3-1.2,4.8-1.8c0.1,0-0.1-0.1-0.2-0.1c-1.5,0.5-2.9,1-4.4,1.5c1.6-2.3,3.4-4.5,5.8-6
		C65,10.6,66,9.9,67,9.7c1.2-0.2,1.9,1.5,2.1,2.4c0.4,2.1-1.7,4.6-3.1,5.9c-2,2-6.5,5-9.3,3c0,0-0.3-0.1-0.3,0
		c0.4,1.2,2.1,1.5,3.2,1.5c2.2-0.1,4.2-1,6-2.2c1.8-1.1,3.3-2.6,4.5-4.3c0.8-1.2,1.9-3.4,1.5-4.9c-0.5-1.6-2-2.4-3.7-2.6
		c-1.2-1.5-3.2-2.1-5-2.5C59.3,5.3,55.7,5.8,52.2,6C45.7,6.6,38.1,8.6,34,14.2c-1.5,2-1.9,4.5,0,6.2c1.9,1.6,4.9,2,7.3,1.9
		c3.5-0.2,6.8-1.4,10.1-2.5c-2.5,4.2-5.1,8.2-9.1,11.1c0,0,0,0,0,0c-0.2-0.1-0.5-0.2-0.7-0.2c-2.4-0.7-5.1-1.4-7.6-1.1
		c-0.9,0.1-1.8,0.4-2.3,1.1C30.6,31.9,31.9,33.1,32.8,33.7z M57.3,28.4c0.7-1,1.3-1.5,1.8-1.5c0.4,0,0.6,0.2,0.6,0.6
		c0,0.9-0.4,1.7-1.2,2.4c-0.7,0.5-1.3,0.8-1.9,0.8c-0.1,0-0.2-0.1-0.2-0.3C56.4,30,56.7,29.3,57.3,28.4z M38.2,20.2
		c-1.2-1.5-0.5-3.6,0.4-5.1c2.4-3.8,7.5-6.5,11.7-7.7c4.9-1.3,12.7-3,16.8,0.9c-2-0.1-4.2,0.3-5.6,0.7c-4.7,1.6-7.6,6.2-10,10.3
		c-1.9,0.6-3.9,1.1-5.9,1.5C43.6,21.3,39.8,22.3,38.2,20.2z M34.3,29.9c2.4-0.4,5.2,0.5,7.5,1.3c-0.7,0.6-1.3,1.3-2.1,1.8
		c-1.5,0.9-3.1,1.3-4.9,0.9c-1.2-0.3-2.7-1.1-2.6-2.5C32.3,30.4,33.6,30,34.3,29.9z"/>
	<polygon fill="#474747" points="119.6,19.6 119.5,19.7 119.6,19.7 	"/>
	<path fill="#474747" d="M123.5,24L123.5,24c0.1-1-0.4-1.5-1.3-1.5c-1.2,0-1.8,0.5-1.8,1.5c0,1,0.5,1.5,1.4,1.5
		C122.9,25.6,123.5,25,123.5,24z"/>
	<path fill="#474747" d="M138.7,30.2l5.9-10.3l-3.3,0L135.8,30v-0.2c-2.8,3.8-4.6,5.7-5.3,5.7c-0.1,0-0.2-0.1-0.3-0.2
		c-0.1-0.2-0.1-0.3-0.1-0.4c0-0.4,0.2-0.9,0.6-1.4c0.2-0.3,0.4-0.5,0.6-0.7c0.2-0.2,0.3-0.4,0.5-0.6c0.6-0.7,0.9-1.5,0.9-2.4
		c0-1.5-0.5-2.2-1.5-2.2c-1.5,0-3,0.9-4.4,2.7h-0.1l1.4-2.4h-3.1l-1.6,2.9c-0.7,1-1.5,1.9-2.3,2.7c-1.1,1.1-2,1.7-2.5,1.7
		c-0.3,0-0.4-0.4-0.4-1.1l3.5-6.6h-2.8c-0.7,1.1-1.2,1.9-1.6,2.6l0-0.2c-0.9,1.4-1.9,2.6-3,3.7c-1.2,1.2-2,1.8-2.5,1.8
		c-0.3,0-0.5-0.2-0.5-0.6c0-0.2,0.1-0.5,0.3-0.9l8.1-14l-3.5,0l-7,12.8c-0.3,0.6-0.5,1.2-0.5,1.8c0,0.5,0.2,0.9,0.5,1.2
		c0.3,0.3,0.8,0.4,1.4,0.4c0.9,0,1.8-0.4,2.7-1.2c0.7-0.6,1.5-1.4,2.3-2.4c0.2-0.2,0.3-0.4,0.5-0.6c-0.1,0.2-0.2,0.3-0.2,0.4
		c-0.1,0.2-0.2,0.3-0.2,0.4c-0.2,0.3-0.3,0.8-0.3,1.5c0,0.5,0.2,1,0.5,1.4c0.3,0.4,0.8,0.6,1.3,0.6c1.2,0,2.4-0.5,3.5-1.6
		c0.5-0.4,1-1,1.6-1.8l-1.9,3.4l2.8,0c1.6-2.9,3.2-5.1,4.8-6.6c0.6-0.6,1.1-0.8,1.7-0.8c0.1,0,0.2,0.1,0.3,0.2
		c0.1,0.1,0.1,0.3,0.1,0.4c0,0.2-0.2,0.6-0.6,1c-0.1,0.2-0.3,0.4-0.6,0.6c-0.2,0.2-0.4,0.5-0.6,0.7c-0.2,0.3-0.4,0.7-0.6,1.3
		c-0.2,0.6-0.2,1.1-0.2,1.5c0,1.2,0.6,1.8,1.9,1.8c1.1,0,2.2-0.7,3.3-2c0.5-0.6,1-1.2,1.4-1.8c0.3-0.4,0.5-0.7,0.8-1.1l-2.6,4.7l3,0
		c0.7-1.3,1.3-2.3,1.9-3.4L138.7,30.2L138.7,30.2z"/>
	<path fill="#474747" d="M159.1,27.3h-2.8l-0.4,0.9l-0.5,0v0c0-0.5-0.2-0.8-0.7-0.9c-0.2-0.1-0.7-0.1-1.3-0.1c-1.5,0-2.8,0.5-4,1.4
		c-0.6,0.5-1.1,1.1-1.4,1.7c-0.8,1-1.6,2-2.6,3c-1.2,1.3-2.1,1.9-2.5,1.9c-0.3,0-0.5-0.2-0.5-0.6c0-0.2,0.1-0.4,0.3-0.7
		c0.2-0.3,0.3-0.5,0.3-0.6c0-0.7-0.2-1.2-0.5-1.4c-0.2-0.1-0.6-0.2-1-0.2v-0.5l0.3,0c0.9,0,1.7-0.2,2.4-0.6c0.8-0.5,1.2-1.1,1.2-1.8
		c0-0.5-0.2-0.8-0.5-1.1c-3.9-0.8-2.6,0.8-2.6,1.7c-0.1,0.4-0.2,0.7-0.5,1.1c-0.5,0.5-1,0.7-1.6,0.7c-0.9,0-1.3,0.1-1.3,0.4
		c0,0.1,0.1,0.2,0.2,0.2c0.1,0.1,0.2,0.1,0.4,0.1c0.4,0,0.5-0.1,0.5-0.3c0.1,0,0.2,0.1,0.2,0.2c0,0.4,0,0.6,0,0.7
		c-0.1,0.3-0.3,0.7-0.5,1.1c-0.2,0.3-0.4,0.6-0.4,0.8c0,0.3,0.2,0.7,0.7,1c0.4,0.3,0.9,0.5,1.4,0.5c1,0,1.9-0.3,2.7-0.8
		c0.6-0.4,1.4-1.1,2.2-2.1c0.4-0.5,0.7-1,1.1-1.4c0.1-0.2,0.3-0.4,0.4-0.6c-0.3,0.7-0.4,1.5-0.4,2.4c0,1.6,0.7,2.4,2,2.4
		c0.6,0,1.3-0.2,2-0.6c0.8-0.4,1.3-0.9,1.5-1.5l0.3,0l0,0.1c0,0.6,0.2,1.1,0.6,1.5c0.4,0.4,0.9,0.5,1.5,0.5c0.8,0,1.6-0.4,2.6-1.3
		c0.3-0.2,0.2-0.5,0-0.5c-0.5,0.5-0.9,0.8-1.1,0.8c-0.2,0-0.3,0.1-0.5,0.1c-0.3,0-0.5-0.1-0.6-0.3c0-0.4,0.1-0.6,0.2-0.8L159.1,27.3
		z M154.7,28.9c0,0.7-0.5,1.7-1.4,3.3c-1,1.6-1.8,2.5-2.5,2.5c-0.7,0-1-0.5-1-1.4c0-0.9,0.5-2.1,1.6-3.5c1-1.4,1.8-2.1,2.4-2.1
		C154.4,27.6,154.7,28,154.7,28.9L154.7,28.9z"/>
	<path fill="#474747" d="M193.9,21.1c-11.7,1.6-21.8-0.2-32.3-5.5c-9.9-5-19.2-10.4-29.9-13.6c-7.5-2.2-15.4-3.1-22.8-0.1
		c-3.1,1.2-7,5.1-6.8,8.3c-7.4,3.2-14.8,11.3-15,19.7c-0.1,4.3,3.7,5.9,7.5,6c1.9,0,3.5-0.4,5.1-1c-0.1,0.2-0.1,0.4-0.2,0.5
		c-0.5,1.1-1.3,2.2-2.1,3.1c-1.1,1-2.1,1.9-2.9,2.5c0,0,0,0,0,0c-0.1,0.1-0.2,0.1-0.3,0.2c-6.4,4.9-14.1,5.9-20.8,5.2
		c-9.4-1-17.8-4.9-26.9-6.8c-8.8-1.9-17.4-2.8-26.7-1.9c-7.8,0.8-13.6,3.5-19.6,7.9c-0.5,0.4,1,0.2,1.1,0.2
		c11.5-4.3,22.4-5.1,34.3-2.7c11.2,2.3,21.8,5.1,33.8,5.4c8.5,0.3,17.3-0.8,25.8-5.5c0.1-0.1,0.3-0.2,0.4-0.2c0,0,0,0,0,0
		c1.7-0.9,3.4-2.2,4.9-3.7c1.3-1.2,2.5-2.2,3.4-3.4c1.7-2,4.3-5.9,5.6-8c1-1.7-5.3-2.1-6.7,0c-1.2,1.8-1.9,4-2.6,6
		c-1.9,0.7-3.8,1-5.4,0.3c-2.1-1-1.9-3.8-1.6-5.6c0.8-5.4,4.2-9.9,8.1-13.5c0.7-0.6,1.4-1.1,2.1-1.6c0.5,0.4,1,0.8,1.6,1.2
		c2.8,1.7,6.4,1.8,9.4,1c3.4-0.9,4.5-5.1,0.8-6.5c-3.1-1.2-6.9-0.8-10.2,0.2c1.1-2.2,3.4-4.3,4.7-5.1c5.6-3.6,12.4-3,18.3-0.7
		c8.3,3.2,15.5,9.2,23.3,13.3c7.6,4,15.3,7,23.8,8.3c7.3,1.1,13.2-0.2,19.8-3.3C195.4,21.3,194,21.1,193.9,21.1z M111.7,10
		c1.8,0.1,3.5,2.1,2.4,3.8c-1.9,2.9-6.9,0.7-8.7-1.1c-0.2-0.2-0.3-0.3-0.4-0.4c1-0.5,2-1,3-1.4C109.1,10.4,110.5,9.9,111.7,10z"/>
</g>
</svg>
