<svg xmlns="http://www.w3.org/2000/svg" xmlns:xlink="http://www.w3.org/1999/xlink" viewBox="0 0 66.59 66.59"><defs><style>.a{fill:#27ae60;}.b{fill:#92ff00;}</style><symbol id="a" viewBox="0 0 66.59 66.59"><rect class="a" width="66.59" height="66.59"/><path class="b" d="M42.77,42.06a21,21,0,0,1-2.13,1.67,22.6,22.6,0,0,1-2.74,1.64,21,21,0,0,1-3,1.25,9.41,9.41,0,0,1-2.91.5,5.52,5.52,0,0,1-2.08-.34,3.45,3.45,0,0,1-1.37-1,3.7,3.7,0,0,1-.75-1.51,8,8,0,0,1-.23-2,21.49,21.49,0,0,1,.33-3.49q0.68-4.13.88-4.64,0.32-1,1.29-4.5Q31,26.88,31.19,26a1.93,1.93,0,0,1,.65-1.08A4.33,4.33,0,0,1,33,24.23a6,6,0,0,1,1.28-.41,6.19,6.19,0,0,1,1.2-.13,1.83,1.83,0,0,1,1.33.37,1.37,1.37,0,0,1,.35,1,6.42,6.42,0,0,1-.24,1.48L36.32,28.7Q36,29.92,35.4,31.84a23.94,23.94,0,0,0-.84,3.27Q34.34,36.46,34,37.8a9.89,9.89,0,0,0-.34,2.43,4.91,4.91,0,0,0,.24,1.7,0.94,0.94,0,0,0,1,.63,3.92,3.92,0,0,0,1.9-.59,17,17,0,0,0,2.11-1.44q1.07-.84,2.09-1.75t1.8-1.54v4.82ZM32.16,17.13a4.05,4.05,0,0,1,1-2.55,4.28,4.28,0,0,1,1.42-1,5.2,5.2,0,0,1,2.22-.42,6.2,6.2,0,0,1,1.57.19,3.8,3.8,0,0,1,1.28.59,2.79,2.79,0,0,1,.87,1,3.43,3.43,0,0,1,.32,1.53,4.86,4.86,0,0,1-.26,1.58,3.69,3.69,0,0,1-.83,1.37,4.28,4.28,0,0,1-1.44,1,5.25,5.25,0,0,1-2.08.37,4.21,4.21,0,0,1-3.09-1A3.58,3.58,0,0,1,32.16,17.13Z"/></symbol></defs><title>mini-header-slider-btn</title><use width="66.59" height="66.59" xlink:href="#a"/></svg>