<?xml version="1.0" encoding="utf-8"?>
<!-- Generator: Adobe Illustrator 18.1.1, SVG Export Plug-In . SVG Version: 6.00 Build 0)  -->
<svg version="1.2" baseProfile="tiny" id="Layer_1" xmlns:x="&ns_extend;" xmlns:i="&ns_ai;" xmlns:graph="&ns_graphs;"
	 xmlns="http://www.w3.org/2000/svg" xmlns:xlink="http://www.w3.org/1999/xlink" x="0px" y="0px" viewBox="0 0 206.5 140.3"
	 xml:space="preserve">
<metadata>
	<sfw  xmlns="&ns_sfw;">
		<slices></slices>
		<sliceSourceBounds  width="-32766" height="-32766" y="24274" x="8592" bottomLeftOrigin="true"></sliceSourceBounds>
	</sfw>
</metadata>
<g>
	<g>
		<g>
			<g>
				<path fill=url(#grad01) d="M56.3,69.7h-9.4v-4.9c0-6.2,0.1-12.4,0.4-18.6L41,69.7h-7.5l-6.2-23.6c0.3,7.8,0.3,9.8,0.4,17.3l0,6.3
					h-9.4V37h14.4l2.1,8.5c1,4.1,1.9,8.2,2.5,12.4c0.7-4.3,1.7-8.4,2.8-12.7l2-8.3h14.1V69.7z"/>
				<path fill=url(#grad01) d="M93.9,53.3c0,10.3-6.6,17.2-16.5,17.2c-10,0-16.8-6.9-16.8-17.2c0-10.4,6.7-17.2,16.8-17.2
					C87.3,36.1,93.9,43,93.9,53.3z M70.9,53.2c0,5.8,2.4,9.2,6.5,9.2c4.1,0,6.3-3.3,6.3-9.5c0-5.5-2.3-8.7-6.4-8.7
					C73.4,44.1,70.9,47.5,70.9,53.2z"/>
				<path fill=url(#grad01) d="M114.9,37c5.4,0,11.6,1.4,11.6,8.2c0,3.2-1.6,5.1-4.1,6.6c3.7,1.3,5.7,3.8,5.7,8.1
					c0,7.7-6.2,9.9-12.6,9.9H98.3V37H114.9z M108.1,49.5h5.7c1.9,0,3-0.9,3-2.5c0-1.7-1.2-2.6-3.5-2.6h-5.2V49.5z M108.1,62h6.2
					c2.5,0,3.8-1,3.8-3c0-2-1.3-3.1-3.8-3.1h-6.2V62z"/>
				<path fill=url(#grad01) d="M142.4,69.7h-10V37h10V69.7z"/>
				<path fill=url(#grad01) d="M172.3,69.7h-24.6V37h10.1v24.2h14.5V69.7z"/>
				<path fill=url(#grad01) d="M203.9,44.9h-17.3V49h15.6v7.6h-15.6v4.8h17.7v8.3h-27.6V37h27.2V44.9z"/>
			</g>
			<g>
				<path fill=url(#grad01) d="M25.6,111.9H19V76.8h6.7V111.9z"/>
				<path fill=url(#grad01) d="M37.6,76.8l9.7,25.5h0c-0.7-3.9-0.8-9.1-0.8-13.1V76.8h6.2v35.1h-7.2l-9.7-25.4h0
					c0.7,3.4,0.8,9.5,0.8,13v12.4h-6.2V76.8H37.6z"/>
				<path fill=url(#grad01) d="M57.6,76.8h11.8c5.9,0,10.9,3,10.9,15.8v1.7c0,7.9-1.6,17.5-10.5,17.5H57.6V76.8z M64.3,106.7h4.2
					c4.3,0,5-5.5,5-12.4c0-8.6-1.2-12.3-4.8-12.3h-4.4V106.7z"/>
				<path fill=url(#grad01) d="M103.6,76.8v5.3H91.5v8.2h11v5.3h-11v10.9h12.1v5.3H84.8V76.8H103.6z"/>
				<path fill=url(#grad01) d="M114.1,76.8l4.5,11.4l4.8-11.4h7.5l-8.6,17l8.9,18h-7.4l-5.1-12.9l-5.3,12.9H106l8.4-18l-8.1-17H114.1z"
					/>
			</g>
		</g>
		<g>
			<g>
				<g>
					<linearGradient id="grad01" gradientUnits="userSpaceOnUse" x1="507.9273" y1="-280.2849" x2="-76.0727" y2="133.7151">
					<animate attributeName="x1" from="500" to="-76" dur="3s"  repeatCount="indefinite"/>
					<animate attributeName="x2" from="-76" to="-576" dur="3s"  repeatCount="indefinite"/>
					<stop  offset="0" style="stop-color:#92FF00"/>
						<stop  offset="0.3818" style="stop-color:#92FF00"/>
						<stop  offset="0.3898" style="stop-color:#6CFF29"/>
						<stop  offset="0.4077" style="stop-color:#0DFF8F"/>
						<stop  offset="0.4102" style="stop-color:#00FF9D"/>
						<stop  offset="0.4107" style="stop-color:#09FFA1"/>
						<stop  offset="0.4137" style="stop-color:#37FFB2"/>
						<stop  offset="0.4172" style="stop-color:#62FFC3"/>
						<stop  offset="0.4208" style="stop-color:#88FFD1"/>
						<stop  offset="0.4248" style="stop-color:#A8FFDE"/>
						<stop  offset="0.4292" style="stop-color:#C4FFE8"/>
						<stop  offset="0.4342" style="stop-color:#DAFFF1"/>
						<stop  offset="0.44" style="stop-color:#EBFFF7"/>
						<stop  offset="0.4472" style="stop-color:#F6FFFC"/>
						<stop  offset="0.4573" style="stop-color:#FDFFFE"/>
						<stop  offset="0.4854" style="stop-color:#FFFFFF"/>
						<stop  offset="0.5076" style="stop-color:#FDFFFE"/>
						<stop  offset="0.5155" style="stop-color:#F6FFFC"/>
						<stop  offset="0.5212" style="stop-color:#EBFFF7"/>
						<stop  offset="0.5259" style="stop-color:#DAFFF1"/>
						<stop  offset="0.5298" style="stop-color:#C4FFE8"/>
						<stop  offset="0.5333" style="stop-color:#A8FFDE"/>
						<stop  offset="0.5365" style="stop-color:#88FFD1"/>
						<stop  offset="0.5394" style="stop-color:#62FFC3"/>
						<stop  offset="0.5421" style="stop-color:#37FFB2"/>
						<stop  offset="0.5445" style="stop-color:#09FFA1"/>
						<stop  offset="0.5449" style="stop-color:#00FF9D"/>
						<stop  offset="0.5525" style="stop-color:#1DFF7E"/>
						<stop  offset="0.5689" style="stop-color:#66FF2F"/>
						<stop  offset="0.5781" style="stop-color:#92FF00"/>
						<stop  offset="1" style="stop-color:#92FF00"/>
					</linearGradient>

					
	
				</g>
			</g>
		</g>
	</g>
	<path fill="#ABABAB" d="M2,20.6v99.6c0,10.3,8.4,18.7,18.7,18.7h44c10,0,18.2-7.9,18.7-17.8H76H51.6H8.9V21.5H76v8.2h7.4v-9.1
		c0-10.3-8.4-18.7-18.7-18.7h-44C10.4,1.9,2,10.3,2,20.6z M33.9,12.4c0-0.5,1.2-1,2.7-1h12.1c1.5,0,2.7,0.4,2.7,1c0,0.5-1.2,1-2.7,1
		H36.6C35.1,13.4,33.9,13,33.9,12.4z M38.5,129.7c0-2.3,1.9-4.2,4.2-4.2c2.3,0,4.2,1.9,4.2,4.2c0,2.3-1.9,4.2-4.2,4.2
		C40.3,133.9,38.5,132,38.5,129.7z"/>
</g>
</svg>
