<svg xmlns="http://www.w3.org/2000/svg" xmlns:xlink="http://www.w3.org/1999/xlink" viewBox="0 0 1600.67 421.77"><defs><symbol id="a" viewBox="0 0 569.11 473"><path d="M239.11,228.6s-79.53,27.81-126.56,95.51c25.23-25.19,32.17-25.1,32.17-25.1-10.3,8.87-55.14,38.49-94.31,110.12-3.82,7,66.64-69,43.51-39.29,0,0-61,75.33-90,99.42S117.82,393.85,143,378.12s-41.3,34.27-41.3,34.27S206.19,390.59,275.93,275,239.11,228.6,239.11,228.6Z" fill="#ff6089"/><path d="M240.18,240.24s-56.95,19.91-90.62,68.39c18.06-18,23-18,23-18-7.37,6.35-39.48,27.56-67.53,78.85-2.73,5,47.72-49.43,31.15-28.13,0,0-43.69,53.94-64.48,71.18s81.59-54,99.63-65.26-29.57,24.53-29.57,24.53,74.81-15.61,124.73-98.38S240.18,240.24,240.18,240.24Z" fill="#c6002f"/><path d="M410.67,39.93C393,51.55,380.24,63.64,358.71,84c0,0-54,51.08-84.36,100-6.14,9.92-13.58,22.41-13.58,22.41l-1.09,1.84a78.3,78.3,0,0,0,12.14,25.57c1.06,1.46,2.14,2.82,3.23,4.12s2.15,2.68,3.35,4a78.3,78.3,0,0,0,22.46,17.23l2-.68s13.77-4.65,24.75-8.58c54.23-19.39,115.49-61.55,115.49-61.55,24.41-16.79,38.9-26.77,54-41.58a216.47,216.47,0,0,0,16.13-17.75L426.34,30.53C420.14,33.9,414.93,37.12,410.67,39.93Z" fill="#00b9e2"/><path d="M426.34,30.53l86.89,98.53C533,104.75,557.69,63.94,569.11.21,500.33-2.12,453.72,15.65,426.34,30.53Z" fill="#364151"/><path d="M276.07,239.25c-0.32-.37-0.65-0.68-1-1s-0.49-.75-0.79-1.14a82.42,82.42,0,0,1-14.62-28.85L239.3,226.42s-2.74,13.63,12.27,31.36c14.66,18,28.55,17.85,28.55,17.85l21.6-16.68A82.42,82.42,0,0,1,276.07,239.25Z" fill="#364151"/><polygon points="449.93 183.72 445.43 266.68 318.81 346.03 311.97 337.79 338.86 303.7 338.65 245.75 449.93 183.72" fill="#364151"/><polygon points="362.15 77.92 279.78 67.02 178.42 176.82 185.26 185.06 223.72 164.93 280.64 175.84 362.15 77.92" fill="#364151"/><circle cx="380.13" cy="151.95" r="44.16" transform="translate(-9.45 277.73) rotate(-39.68)" fill="#0b97b1" stroke="#1dceff" stroke-miterlimit="10" stroke-width="10.29"/><circle cx="466.99" cy="79.89" r="32" transform="translate(56.58 316.58) rotate(-39.68)" fill="#0b97b1" stroke="#1dceff" stroke-miterlimit="10" stroke-width="10.29"/><polygon points="315.37 207.13 274.54 256.72 234.74 276.77 259.75 240.81 315.37 207.13" fill="#394556"/></symbol></defs><title>prodvizhenie-sajtov-oblozhka-mobileindex.ru</title><rect x="0.33" y="0.33" width="1600" height="421.11" fill="#27ae60" stroke="#27ff60" stroke-miterlimit="10" stroke-width="0.67"/><polygon points="630.18 299.63 648.22 276.51 437.52 112.11 419.48 135.22 331.9 247.47 542.59 411.88 630.18 299.63" fill="#e85163"/><path d="M442.9,122a20,20,0,0,1,5.4-4.9,15.95,15.95,0,0,1,12.77-1.81,18,18,0,0,1,6.31,3.26,17.23,17.23,0,0,1,4.56,5.14,16,16,0,0,1,1.95,5.66l-3.56,1a2,2,0,0,1-.7.09,1.41,1.41,0,0,1-.8-0.34,1.62,1.62,0,0,1-.46-0.61,8.81,8.81,0,0,1-.36-0.92q-0.17-.52-0.42-1.18a8.21,8.21,0,0,0-.7-1.38,12.58,12.58,0,0,0-1.14-1.53,12.2,12.2,0,0,0-1.77-1.65,10.69,10.69,0,0,0-3.88-2,9.35,9.35,0,0,0-4.11-.16,11.11,11.11,0,0,0-4.08,1.7,16.05,16.05,0,0,0-3.8,3.62,15.13,15.13,0,0,0-2.55,4.62,11.52,11.52,0,0,0-.58,4.42,9.7,9.7,0,0,0,1.17,3.95,10.31,10.31,0,0,0,2.75,3.2,18.49,18.49,0,0,0,2,1.36,9.9,9.9,0,0,0,1.84.86,9,9,0,0,0,1.85.42,10.56,10.56,0,0,0,2,0,2.16,2.16,0,0,1,.61,0,1.29,1.29,0,0,1,1,1.13l0.31,3.73a13.87,13.87,0,0,1-6.59,0,18,18,0,0,1-6.7-3.46A17.61,17.61,0,0,1,440.5,141a15.32,15.32,0,0,1-1.91-6.16,16.06,16.06,0,0,1,.82-6.51A21.2,21.2,0,0,1,442.9,122Z" transform="translate(0.33 110)" fill="#fff"/><path d="M460.62,149.88a5.7,5.7,0,0,1,2.28-1.71,7,7,0,0,1,3.45-.44,15.3,15.3,0,0,1,4.71,1.36,32.47,32.47,0,0,1,6.08,3.71l0.91-1.16a5.49,5.49,0,0,0,1.44-3.56,3.84,3.84,0,0,0-1.67-2.82,7.22,7.22,0,0,0-2.09-1.2,8.93,8.93,0,0,0-1.8-.42l-1.51-.18a2.53,2.53,0,0,1-1.26-.54,1.65,1.65,0,0,1-.63-0.92,3.23,3.23,0,0,1-.09-1l0.36-2.18a14.79,14.79,0,0,1,10.47,3.29,9.81,9.81,0,0,1,2.58,2.91,8,8,0,0,1,1,3.31,8.7,8.7,0,0,1-.46,3.48,11.52,11.52,0,0,1-1.88,3.41l-9.6,12.31-2.13-1.66a2.68,2.68,0,0,1-.87-1,1.75,1.75,0,0,1,.06-1.24l0.7-1.69a21.88,21.88,0,0,1-2.34.06,10.46,10.46,0,0,1-2.1-.28,9.07,9.07,0,0,1-2-.75,12.62,12.62,0,0,1-2-1.32,9.72,9.72,0,0,1-2-2.11,6.23,6.23,0,0,1-1-2.4,5.68,5.68,0,0,1,.12-2.58A7.4,7.4,0,0,1,460.62,149.88Zm4.76,3.18a2.52,2.52,0,0,0-.63,2.31,4.05,4.05,0,0,0,1.49,2,7.19,7.19,0,0,0,2.89,1.44,9.26,9.26,0,0,0,3.26.05l2.53-3.24a32.08,32.08,0,0,0-3.69-2.32,11.75,11.75,0,0,0-2.7-1.07,3.66,3.66,0,0,0-1.91,0A2.5,2.5,0,0,0,465.38,153.06Z" transform="translate(0.33 110)" fill="#fff"/><path d="M477.37,171l15.2-19.48,4.69,3.66-8.88,11.38q-0.35.45-.8,0.93c-0.3.32-.61,0.64-0.93,0.94a14.42,14.42,0,0,1,2-.89l0.76-.23,1.84-.54,2.56-.76,2.92-.87,7.87-2.36a4.12,4.12,0,0,1,1.33-.25,1.91,1.91,0,0,1,1.27.4l2.85,2.23-15.2,19.48L490.2,181l8.86-11.36c0.23-.3.49-0.61,0.78-0.93a13.11,13.11,0,0,1,.95-0.95c-0.37.19-.72,0.36-1.06,0.52a6.68,6.68,0,0,1-1,.35l-0.78.22-1.85.56-2.57.77-2.91.86-7.85,2.38a4.44,4.44,0,0,1-1.3.24,1.86,1.86,0,0,1-1.26-.39ZM500.61,147a2.28,2.28,0,0,1,.94-0.73,1,1,0,0,1,1.05.16l2.78,2.17a10.06,10.06,0,0,0-1,1.53,2.62,2.62,0,0,0-.34,1.26,2,2,0,0,0,.36,1.09,6.06,6.06,0,0,0,2.36,1.84,1.9,1.9,0,0,0,1.14.09,2.81,2.81,0,0,0,1.14-.63,9.34,9.34,0,0,0,1.25-1.35l2.76,2.16a1,1,0,0,1,.41,1,2.28,2.28,0,0,1-.48,1.09,4.5,4.5,0,0,1-1.8,1.41,4.86,4.86,0,0,1-2.29.36,7.88,7.88,0,0,1-2.61-.69,13.1,13.1,0,0,1-2.75-1.69,13.26,13.26,0,0,1-2.33-2.28,7.87,7.87,0,0,1-1.3-2.36,4.85,4.85,0,0,1-.21-2.31A4.51,4.51,0,0,1,500.61,147Z" transform="translate(0.33 110)" fill="#fff"/><path d="M510.07,170.84l2.78-3.56,18.55,14.48-2.78,3.56-7-5.42-12.42,15.92-4.69-3.66L517,176.24Z" transform="translate(0.33 110)" fill="#fff"/><rect x="438.37" y="31.07" width="37.58" height="10.87" transform="translate(119.54 -163.51) rotate(37.96)" fill="#e88b63"/><rect x="476.24" y="60.62" width="37.58" height="10.87" transform="translate(145.72 -180.55) rotate(37.96)" fill="#e88b63"/><rect x="514.1" y="90.16" width="37.58" height="10.87" transform="translate(171.91 -197.59) rotate(37.96)" fill="#e88b63"/><rect x="551.96" y="119.7" width="37.58" height="10.87" transform="translate(198.09 -214.63) rotate(37.96)" fill="#e88b63"/><rect x="589.82" y="149.24" width="37.58" height="10.87" transform="matrix(0.79, 0.62, -0.62, 0.79, 224.28, -231.67)" fill="#e88b63"/><polygon points="911.33 227.06 918.74 198.69 660.17 131.14 652.75 159.51 616.77 297.26 875.34 364.82 911.33 227.06" fill="#e85163"/><rect x="673.01" y="39.39" width="37.58" height="10.87" transform="translate(34.13 -63.41) rotate(14.64)" fill="#e88b63"/><rect x="719.47" y="51.53" width="37.58" height="10.87" transform="matrix(0.97, 0.25, -0.25, 0.97, 38.71, -74.76)" fill="#e88b63"/><rect x="765.93" y="63.66" width="37.58" height="10.87" transform="translate(43.28 -86.11) rotate(14.64)" fill="#e88b63"/><rect x="812.4" y="75.8" width="37.58" height="10.87" transform="translate(47.86 -97.46) rotate(14.64)" fill="#e88b63"/><rect x="858.86" y="87.94" width="37.58" height="10.87" transform="translate(52.44 -108.81) rotate(14.64)" fill="#e88b63"/><path d="M808.36,74.42c-2.84,6.75-4.19,12.71-6.46,22.72,0,0-5.71,25.15-5,45.11,0.15,4,.42,9.08.42,9.08l0,0.74a27.15,27.15,0,0,0,8.43,5c0.59,0.22,1.16.4,1.73,0.56s1.14,0.36,1.74.51a27.16,27.16,0,0,0,9.8.63l0.45-.59s3.07-4,5.47-7.25c11.88-16.06,21.39-40,21.39-40,3.79-9.55,6-15.22,7.52-22.4a75.07,75.07,0,0,0,1.22-8.23L811.06,68.69C809.92,70.86,809,72.79,808.36,74.42Z" transform="translate(0.33 110)" fill="#9891cc"/><path d="M811.06,68.69L855.11,80.3c1-10.82.24-27.35-8.78-47.91C826.07,45,816.07,59.12,811.06,68.69Z" transform="translate(0.33 110)" fill="#7f7aae"/><path d="M808.07,157.83l-0.47-.1-0.45-.17a28.58,28.58,0,0,1-9.78-5.49L795,161.24s1.84,4.45,9.59,6.66c7.7,2.36,11.67-.37,11.67-0.37l3-9A28.58,28.58,0,0,1,808.07,157.83Z" transform="translate(0.33 110)" fill="#7f7aae"/><polygon points="847.76 218.26 862.49 243.03 841.33 290.34 837.77 289.29 838.93 274.28 827.68 257.62 847.76 218.26" fill="#7f7aae"/><polygon points="802.05 204.74 776.22 217.5 768.21 268.7 771.78 269.76 778.97 256.53 797.47 248.68 802.05 204.74" fill="#7f7aae"/><circle cx="821.19" cy="112.59" r="15.31" transform="translate(480.5 978.06) rotate(-73.51)" fill="#c2c2c2" stroke="#b2aed7" stroke-miterlimit="10" stroke-width="3.57"/><circle cx="832.3" cy="75.06" r="11.1" transform="translate(524.45 961.83) rotate(-73.51)" fill="#c2c2c2" stroke="#b2aed7" stroke-miterlimit="10" stroke-width="3.57"/><polygon points="813.52 250.99 811.33 273.16 803.74 286.62 804 271.43 813.52 250.99" fill="#5045b0"/><path d="M644.26,165.52l1-4,1.8,0.47a5.78,5.78,0,0,0,1.26.18,3.37,3.37,0,0,0,1.38-.27,5.62,5.62,0,0,0,1.55-1,11.38,11.38,0,0,0,1.74-2,28.42,28.42,0,0,0,2-3.29q1-2,2.19-4.86t2.48-6.71q1.32-3.84,2.78-8.86l21.38,5.58L675,174.47l-6.28-1.64L676.27,144l-9.17-2.39q-2,6.26-3.79,10.71a69.64,69.64,0,0,1-3.5,7.49,25.51,25.51,0,0,1-3.28,4.78,11.77,11.77,0,0,1-3.14,2.55,6.82,6.82,0,0,1-3.1.83,11.72,11.72,0,0,1-3.14-.39,7.47,7.47,0,0,1-2.37-.94A1,1,0,0,1,644.26,165.52Z" transform="translate(0.33 110)" fill="#fff"/><path d="M680.16,172l2.08-1.52a1.21,1.21,0,0,1,1.2-.22,1.53,1.53,0,0,1,.61.32,5.73,5.73,0,0,1,.54.53l0.59,0.67a5.43,5.43,0,0,0,.77.71,7,7,0,0,0,1.1.68,7.9,7.9,0,0,0,1.58.57,5.58,5.58,0,0,0,4.4-.55,8.09,8.09,0,0,0,3.21-4.12l-10.14-2.65,1.07-4.09,10.1,2.64a7.22,7.22,0,0,0-.91-4.61,6,6,0,0,0-3.74-2.53,7.28,7.28,0,0,0-2.05-.28,9.36,9.36,0,0,0-1.55.17c-0.45.1-.85,0.19-1.18,0.27a1.82,1.82,0,0,1-.93,0,1.22,1.22,0,0,1-.66-0.37,2.48,2.48,0,0,1-.36-0.66l-1-2.3a11.75,11.75,0,0,1,4.27-1.51,12.44,12.44,0,0,1,4.92.38,13,13,0,0,1,4.74,2.23,10.69,10.69,0,0,1,3,3.5,11.26,11.26,0,0,1,1.23,4.45,16.8,16.8,0,0,1-2.73,10.09,12.17,12.17,0,0,1-3.34,3.3,10,10,0,0,1-4.06,1.53,11,11,0,0,1-4.38-.26,18.68,18.68,0,0,1-2.49-.84,12,12,0,0,1-2.32-1.29,11.3,11.3,0,0,1-2-1.82A10.94,10.94,0,0,1,680.16,172Z" transform="translate(0.33 110)" fill="#fff"/><path d="M703.76,182l6.25-23.9,5.75,1.5-2.34,9,9.3,2.43,2.34-9,5.75,1.5-6.25,23.9-5.75-1.5,2.76-10.58-9.3-2.43-2.76,10.58Z" transform="translate(0.33 110)" fill="#fff"/><path d="M728.92,184.18l0.91,0.24a5.26,5.26,0,0,0,1.62.12,3.68,3.68,0,0,0,1.69-.63,8,8,0,0,0,1.83-1.75,27.52,27.52,0,0,0,2.71-5.14l1.76-4,2.41-6.67,16.4,4.28-5.13,19.65,4.68,1.22L755,202.08a1.73,1.73,0,0,1-.81,1.14,1.78,1.78,0,0,1-1.37.14l-3.8-1,2.09-8-17.78-4.65-1.67,6.39a1.77,1.77,0,0,1-.7,1,1.6,1.6,0,0,1-1.4.17l-3.85-1Zm9.18,2.4,9.45,2.47,4-15.44L745.41,172q-1.09,3.11-2,5.27t-1.92,4q-1,1.86-1.81,3.14A17.18,17.18,0,0,1,738.1,186.57Z" transform="translate(0.33 110)" fill="#fff"/><path d="M759.78,196.63l6.25-23.9,5.75,1.5-3.65,14q-0.14.54-.37,1.17t-0.48,1.23A14.46,14.46,0,0,1,768.8,189l0.61-.51,1.48-1.23,2.05-1.71,2.33-2,6.29-5.28a4.08,4.08,0,0,1,1.12-.75,1.91,1.91,0,0,1,1.32-.14l3.5,0.92-6.25,23.9-5.75-1.5,3.64-13.94c0.09-.36.21-0.75,0.35-1.16s0.31-.82.5-1.24q-0.39.48-.77,0.89a6.4,6.4,0,0,1-.74.71s-0.25.19-.63,0.51l-1.48,1.24-2.05,1.72L772,191.39l-6.27,5.29a4.46,4.46,0,0,1-1.1.73,1.86,1.86,0,0,1-1.31.14Z" transform="translate(0.33 110)" fill="#fff"/><path d="M786.92,203.7l6.25-23.9,5.75,1.5-2.34,9,9.3,2.43,2.34-9,5.75,1.5-6.25,23.9-5.75-1.5,2.76-10.58-9.3-2.43-2.76,10.58Z" transform="translate(0.33 110)" fill="#fff"/><path d="M813.44,210.63l6.25-23.9L835.88,191l-1.14,4.37-10.44-2.73-5.1,19.54Z" transform="translate(0.33 110)" fill="#fff"/><path d="M895.95,115.86c21.6,10.46,44.3,18.9,68.17,22.22,18.15,2.52,36.36,1.8,54.54.05,18.94-1.82,37.82-4.1,56.87-4.2a287.42,287.42,0,0,1,35.41,2c14.17,1.68,28.11,5.13,42.36,6.23,18.92,1.47,46.18-2.79,49.49-25.85,2.84-19.79-13-39.16-27.59-50.38C1154,49.69,1126.86,44.6,1101.07,41a143.52,143.52,0,0,0-63,4.84c-22.55,6.9-43.54,17.84-65.46,26.36C949,81.38,924.53,86.79,899.17,83.52c-1.91-.25-1.89,2.76,0,3,20.41,2.63,40.66-.14,60.17-6.4,19-6.09,36.92-14.91,55.32-22.51,18.85-7.79,38.46-14.28,59-15.28,11.81-.58,23.43,1,35.07,2.8,12.54,1.93,25.06,4.41,37,8.68,22.17,7.89,44.45,23.58,52.28,46.83,3.34,9.92,2.84,20.85-5,28.57-8.64,8.54-21.71,10.49-33.32,10.29-14.09-.25-27.82-3.66-41.72-5.63a294.18,294.18,0,0,0-32.57-2.82c-18.88-.55-37.64,1.09-56.4,3-19,2-38,3.72-57.05,1.92-26.14-2.46-51-11.36-74.54-22.74-1.73-.84-3.25,1.75-1.51,2.59h0Z" transform="translate(0.33 110)" fill="#27ff60"/><use width="569.11" height="473" transform="translate(1097.59 -37) rotate(32.11) scale(0.72)" xlink:href="#a"/><path d="M541.5,139.66c39.84,12.21,78.15-9.32,111.34-29.12a1.5,1.5,0,0,0-1.51-2.59c-32.49,19.39-70,40.78-109,28.82-1.85-.57-2.64,2.33-0.8,2.89h0Z" transform="translate(0.33 110)" fill="#27ff60"/><path d="M639.06,87.46a579,579,0,0,0-79.21,6.2c-1.9.28-1.09,3.17,0.8,2.89a573.23,573.23,0,0,1,78.41-6.09,1.5,1.5,0,0,0,0-3h0Z" transform="translate(0.33 110)" fill="#27ff60"/></svg>