<svg xmlns="http://www.w3.org/2000/svg" viewBox="0 0 799.4 646.04">
  <defs>
    <style>
  @font-face {
    font-family: 'latobold';
    src: url('/fonts/lato-bold.eot');
    src: url('/fonts/lato-bold.eot?#iefix') format('embedded-opentype'),
         url('/fonts/lato-bold.woff') format('woff'),
         url('/fonts/lato-bold.ttf') format('truetype');
    font-weight: normal;
    font-style: normal;
} 
  .a, .h {
        fill: #27ae60;
      }

      .a, .w {
        stroke: #27ff60;
        stroke-width: 0.47px;
      }

      .a, .i, .k, .m, .n, .o, .w, .z {
        stroke-miterlimit: 10;
      }

      .b {
        font-size: 29px;
      }

      .ad, .b, .m, .n, .o, .q, .u {
        fill: #fff;
      }

      .ad, .b, .q, .r, .u {
        font-family: Latobold;
        font-weight: 700;
      }

      .c, .r {
        fill: #e85163;
      }

      .d {
        fill: #e88b63;
      }

      .e {
        fill: #e98770;
      }

      .f {
        fill: #d82900;
      }

      .g {
        fill: #77cc9b;
      }

      .i {
        fill: #5dc288;
        stroke: #93d7b0;
        stroke-width: 2.21px;
      }

      .j {
        fill: #2bb063;
      }

      .ac, .k, .p {
        fill: none;
      }

      .k, .m, .n, .o {
        stroke: #27ae60;
      }

      .l {
        fill: #277560;
      }

      .m {
        stroke-width: 7.14px;
      }

      .n {
        stroke-width: 4.01px;
      }

      .p {
        stroke: #277560;
        stroke-width: 26.37px;
      }

      .ac, .p {
        stroke-linecap: round;
        stroke-linejoin: round;
      }

      .q {
        font-size: 25.31px;
      }

      .r {
        font-size: 32.15px;
      }

      .s {
        fill: #c55163;
      }

      .t {
        fill: gray;
      }

      .u {
        font-size: 20px;
      }

      .v {
        fill: #a2a2a2;
      }

      .w {
        fill: #278460;
      }

      .x {
        fill: #9891cc;
      }

      .y {
        fill: #7f7aae;
      }

      .z {
        fill: #c2c2c2;
        stroke: #b2aed7;
        stroke-width: 2.54px;
      }

      .aa {
        fill: #5045b0;
      }

      .ab {
        fill: #e87063;
      }

      .ac {
        stroke: #000;
        stroke-width: 7.05px;
      }

      .ad {
        font-size: 18px;
      }
    </style>
  </defs>
  <title>Продвижение сайтов-обложка</title>
  <g>
    <rect class="a" x="568.44" y="193.8" width="138" height="138"/>
    <text class="b" transform="translate(593.78 271.81)">Т<tspan x="16.7" y="0">ОП-1</tspan></text>
  </g>
  <g>
    <polygon class="c" points="514.25 213.76 509.22 195.44 342.25 241.24 347.27 259.56 371.67 348.52 538.64 302.72 514.25 213.76"/>
    <text class="b" transform="translate(410.93 295.22) rotate(-15.34)">Сайт</text>
    <g>
      <rect class="d" x="818.3" y="1034.19" width="24.35" height="7.04" transform="translate(-707.53 -536.9) rotate(-15.34)"/>
      <rect class="d" x="848.3" y="1025.96" width="24.35" height="7.04" transform="translate(-704.28 -529.25) rotate(-15.34)"/>
      <rect class="d" x="878.3" y="1017.73" width="24.35" height="7.04" transform="translate(-701.03 -521.61) rotate(-15.34)"/>
      <rect class="d" x="908.31" y="1009.5" width="24.35" height="7.04" transform="translate(-697.79 -513.97) rotate(-15.34)"/>
      <rect class="d" x="938.31" y="1001.27" width="24.35" height="7.04" transform="translate(-694.54 -506.33) rotate(-15.34)"/>
    </g>
  </g>
  <g>
    <path class="e" d="M1005.37,866S991.8,878,988,895.36c3-7.08,4.36-7.63,4.36-7.63a71.38,71.38,0,0,0-9.78,29.64c-0.19,1.7,7.63-19.2,5.45-11.38,0,0-6,20-9.81,27.16s16.53-24.33,20.26-29.53-5.43,10.2-5.43,10.2,19-12.88,23.47-41.61S1005.37,866,1005.37,866Z" transform="translate(-462.62 -793.53)"/>
    <path class="f" d="M1006.53,868.22s-9.71,8.62-12.46,21c2.12-5.07,3.12-5.46,3.12-5.46a51.11,51.11,0,0,0-7,21.23c-0.14,1.22,5.46-13.75,3.91-8.15,0,0-4.29,14.31-7,19.45s11.84-17.42,14.51-21.14-3.88,7.3-3.88,7.3,13.62-9.22,16.8-29.79S1006.53,868.22,1006.53,868.22Z" transform="translate(-462.62 -793.53)"/>
    <path class="g" d="M1024.11,814.39c-2.56,3.76-4.12,7.21-6.75,13,0,0-6.59,14.59-8.63,26.82-0.41,2.48-.87,5.57-0.87,5.57l-0.07.45a16.86,16.86,0,0,0,4.51,4.1c0.33,0.2.66,0.39,1,.56s0.65,0.36,1,.53a16.86,16.86,0,0,0,5.88,1.6l0.35-.3s2.36-2.05,4.23-3.73c9.22-8.3,18-21.7,18-21.7,3.49-5.34,5.56-8.51,7.35-12.69a46.61,46.61,0,0,0,1.76-4.85l-25.36-12.52C1025.51,812.41,1024.73,813.48,1024.11,814.39Z" transform="translate(-462.62 -793.53)"/>
    <path class="h" d="M1026.47,811.24l25.36,12.52c2-6.46,3.53-16.61.6-30.23C1038.54,798.69,1030.7,806,1026.47,811.24Z" transform="translate(-462.62 -793.53)"/>
    <path class="h" d="M1013.6,865.09l-0.27-.12-0.25-.16a17.74,17.74,0,0,1-5.27-4.55l-2.58,5.28s0.57,2.94,5,5.24,7.15,1.22,7.15,1.22l2.94-5.09A17.74,17.74,0,0,1,1013.6,865.09Z" transform="translate(-462.62 -793.53)"/>
    <polygon class="h" points="581.07 46.29 586.95 63.19 568.22 89.34 566.18 88.26 568.75 79.27 563.97 67.74 581.07 46.29"/>
    <polygon class="h" points="554.93 32.4 537.64 36.96 526.42 67.11 528.46 68.19 534.48 61.04 546.71 58.56 554.93 32.4"/>
    <circle class="i" cx="1027.19" cy="839.2" r="9.51" transform="translate(-658.68 558.53) rotate(-61.99)"/>
    <circle class="i" cx="1038.6" cy="817.74" r="6.89" transform="translate(-633.69 557.23) rotate(-61.99)"/>
    <polygon class="j" points="556.18 61.95 552.1 75.17 545.81 82.42 547.85 73.21 556.18 61.95"/>
  </g>
  <g>
    <path class="e" d="M916,877.45s-9.36,15.54-7.84,33.22c0.72-7.64,1.88-8.58,1.88-8.58a71.38,71.38,0,0,0-.49,31.21c0.33,1.68,1.55-20.6,1.81-12.49,0,0,.24,20.87-1.26,28.85s8.52-28.16,10.53-34.23-2.13,11.36-2.13,11.36,14.32-18,10-46.71S916,877.45,916,877.45Z" transform="translate(-462.62 -793.53)"/>
    <path class="f" d="M917.75,879.23S911,890.36,912.13,903c0.51-5.47,1.35-6.14,1.35-6.14a51.11,51.11,0,0,0-.35,22.35c0.23,1.2,1.11-14.75,1.3-8.94,0,0,.17,14.94-0.9,20.66s6.1-20.16,7.54-24.51-1.53,8.13-1.53,8.13,10.25-12.87,7.15-33.45S917.75,879.23,917.75,879.23Z" transform="translate(-462.62 -793.53)"/>
    <path class="g" d="M918.46,822.6c-1.32,4.35-1.78,8.11-2.55,14.44,0,0-1.93,15.89-.23,28.17,0.35,2.49.83,5.58,0.83,5.58l0.07,0.45a16.86,16.86,0,0,0,5.53,2.57c0.38,0.1.74,0.17,1.1,0.24s0.72,0.15,1.11.21a16.86,16.86,0,0,0,6.09-.23l0.24-.39s1.64-2.66,2.92-4.83c6.32-10.67,10.68-26.07,10.68-26.07,1.74-6.14,2.77-9.78,3.23-14.31a46.61,46.61,0,0,0,.23-5.16l-27.94-4.38C919.21,820.3,918.78,821.55,918.46,822.6Z" transform="translate(-462.62 -793.53)"/>
    <path class="h" d="M919.77,818.89l27.94,4.38c-0.06-6.75-1.58-16.9-8.45-29C927.54,803.31,922.26,812.66,919.77,818.89Z" transform="translate(-462.62 -793.53)"/>
    <path class="h" d="M923.56,874.13l-0.3,0L923,874a17.74,17.74,0,0,1-6.39-2.77l-0.88,5.81s1.42,2.63,6.34,3.51,7.18-1,7.18-1l1.29-5.73A17.74,17.74,0,0,1,923.56,874.13Z" transform="translate(-462.62 -793.53)"/>
    <polygon class="h" points="482.11 47.51 492.77 61.87 482.7 92.43 480.43 92 480.2 82.66 472.2 73.08 482.11 47.51"/>
    <polygon class="h" points="453.02 42.04 437.88 51.56 436.18 83.69 438.44 84.11 442.05 75.49 452.98 69.47 453.02 42.04"/>
    <circle class="i" cx="928.8" cy="845.37" r="9.51" transform="translate(-536.15 808.57) rotate(-79.36)"/>
    <circle class="i" cx="933.29" cy="821.48" r="6.89" transform="translate(-509.02 793.51) rotate(-79.36)"/>
    <polygon class="j" points="463.04 69.88 463.09 83.71 459.25 92.51 458.45 83.11 463.04 69.88"/>
  </g>
  <g>
    <path class="e" d="M821.88,910.15s-11.17,14.29-11.82,32c1.64-7.5,2.91-8.29,2.91-8.29a71.38,71.38,0,0,0-4.28,30.92c0.12,1.71,4-20.26,3.31-12.18,0,0-2.29,20.75-4.75,28.49s11.87-26.92,14.61-32.7-3.5,11-3.5,11,16.39-16.1,15.58-45.16S821.88,910.15,821.88,910.15Z" transform="translate(-462.62 -793.53)"/>
    <path class="f" d="M823.43,912.14s-8,10.23-8.46,22.93c1.17-5.37,2.08-5.94,2.08-5.94A51.11,51.11,0,0,0,814,951.27c0.09,1.22,2.9-14.51,2.37-8.72,0,0-1.64,14.85-3.4,20.4s8.5-19.27,10.46-23.41-2.5,7.88-2.5,7.88,11.74-11.53,11.15-32.33S823.43,912.14,823.43,912.14Z" transform="translate(-462.62 -793.53)"/>
    <path class="g" d="M831,856c-1.84,4.16-2.75,7.83-4.29,14,0,0-3.85,15.54-3.65,27.94,0,2.51.15,5.64,0.15,5.64l0,0.46a16.86,16.86,0,0,0,5.17,3.22c0.36,0.14.72,0.26,1.06,0.37s0.7,0.24,1.08.34a16.86,16.86,0,0,0,6.07.51l0.29-.36s2-2.44,3.49-4.43c7.57-9.82,13.76-24.58,13.76-24.58,2.47-5.88,3.93-9.38,4.94-13.81a46.61,46.61,0,0,0,.86-5.09l-27.2-7.74C832,853.82,831.46,855,831,856Z" transform="translate(-462.62 -793.53)"/>
    <path class="h" d="M832.76,852.49l27.2,7.74c0.76-6.7.48-17-4.87-29.84C842.37,838,836,846.61,832.76,852.49Z" transform="translate(-462.62 -793.53)"/>
    <path class="h" d="M829.82,907.78l-0.29-.07-0.28-.11a17.74,17.74,0,0,1-6-3.53l-1.58,5.66s1.09,2.79,5.87,4.25,7.25-.09,7.25-0.09l2-5.54A17.74,17.74,0,0,1,829.82,907.78Z" transform="translate(-462.62 -793.53)"/>
    <polygon class="h" points="392.24 83.97 401.07 99.52 387.36 128.63 385.17 127.93 386.07 118.63 379.29 108.15 392.24 83.97"/>
    <polygon class="h" points="364.02 75.01 347.84 82.62 342.25 114.3 344.44 115 349.07 106.88 360.65 102.23 364.02 75.01"/>
    <circle class="i" cx="838.51" cy="879.86" r="9.51" transform="translate(-716.45 619.29) rotate(-72.39)"/>
    <circle class="i" cx="845.87" cy="856.7" r="6.89" transform="translate(-689.25 610.15) rotate(-72.39)"/>
    <polygon class="j" points="370.58 103.86 368.95 117.6 364.07 125.86 364.42 116.44 370.58 103.86"/>
  </g>
  <line class="k" x1="371.36" y1="257.46" x2="385.4" y2="110.55"/>
  <line class="k" x1="393.39" y1="115.84" x2="403.34" y2="224.48"/>
  <line class="k" x1="442.58" y1="64.09" x2="427.86" y2="242.37"/>
  <line class="k" x1="482.49" y1="66.71" x2="453.08" y2="237.37"/>
  <path class="k" d="M1005.22,843.82c-1.61.08-70.4,159.41-70.4,159.41" transform="translate(-462.62 -793.53)"/>
  <line class="k" x1="571.66" y1="70.07" x2="495.19" y2="204.04"/>
  <path class="l" d="M1208.26,1100.69c0.47-3.21.82-6.41,1.24-9.62s0.74-6.41,1.06-9.62,0.65-6.41.95-9.62,0.57-6.41.85-9.62,0.51-6.41.77-9.62,0.47-6.41.69-9.62c0.46-6.41.8-12.83,1.19-19.24s0.68-12.83.91-19.24l0.39-9.62,0.31-9.62,0.29-9.62,0.21-9.62c0.06-3.21.16-6.41,0.18-9.62l0.12-9.62V947a14.36,14.36,0,0,0-.3-1.61c-0.13-.56-0.3-1.12-0.49-1.66a16.89,16.89,0,0,0-1.43-3.11,16.13,16.13,0,0,0-.95-1.39,14.92,14.92,0,0,0-1.1-1.24l-0.61-.56-0.65-.51a11.89,11.89,0,0,0-1.4-.86,13.64,13.64,0,0,0-6.52-1.43c-0.58,0-1.17.06-1.75,0.08s-1.18.15-1.76,0.23l-1.76.36-1.76.46,0.17-.06-15.07,6-15,6-15,6.06-15,6.14L1122,966l-15,6.22-14.95,6.27-14.93,6.31-14.9,6.38-14.88,6.44q-7.44,3.22-14.86,6.5l-14.83,6.57q-14.81,6.61-29.56,13.38l-14.72,6.84c-4.89,2.33-9.79,4.61-14.66,7a9.12,9.12,0,0,1-8-16.38A9.88,9.88,0,0,1,952,1021c5.18-1.6,10.31-3.3,15.47-5l15.41-5.11q15.39-5.15,30.7-10.52l15.3-5.38q7.65-2.69,15.27-5.45l15.25-5.51,15.23-5.57,15.2-5.64,15.18-5.68,15.16-5.73,15.14-5.79,15.13-5.81,15.1-5.89,15.09-5.9,15.06-6h0l0.14,0,2-.51,2-.4c0.68-.09,1.36-0.2,2-0.26s1.38-.13,2.08-0.1h1l1.06,0.08a18.65,18.65,0,0,1,2.11.31,17.31,17.31,0,0,1,2.09.59,8.76,8.76,0,0,1,1,.4,9.81,9.81,0,0,1,1,.47,15.7,15.7,0,0,1,1.87,1.15l0.87,0.67,0.82,0.73a18.66,18.66,0,0,1,1.46,1.61,19.93,19.93,0,0,1,1.23,1.77,20.79,20.79,0,0,1,1.81,3.83c0.23,0.66.44,1.33,0.61,2a17.53,17.53,0,0,1,.42,2.16,1.28,1.28,0,0,1,0,.14v0.06l0.08,9.62c0,3.21.1,6.41,0.15,9.62l0.17,9.62,0.25,9.62,0.28,9.62,0.36,9.62c0.21,6.42.57,12.83,0.85,19.25s0.68,12.83,1.12,19.25c0.21,3.21.41,6.42,0.66,9.62s0.45,6.42.73,9.62,0.51,6.42.82,9.62,0.58,6.42.92,9.62,0.67,6.42,1,9.62,0.74,6.42,1.2,9.62a11,11,0,0,1-21.75,3.12A11.35,11.35,0,0,1,1208.26,1100.69Z" transform="translate(-462.62 -793.53)"/>
  <g>
    <path class="m" d="M1181.12,966.5h0a26.85,26.85,0,0,0-5.32-19.85h0a26.85,26.85,0,0,0,10.28-17.8h0a26.85,26.85,0,0,0,19.85-5.32h0a26.85,26.85,0,0,0,17.8,10.28h0a26.85,26.85,0,0,0,5.32,19.85h0a26.85,26.85,0,0,0-10.28,17.8h0a26.85,26.85,0,0,0-19.85,5.32h0A26.85,26.85,0,0,0,1181.12,966.5Z" transform="translate(-462.62 -793.53)"/>
    <circle class="n" cx="739.81" cy="156.63" r="7.34"/>
  </g>
  <path class="o" d="M1195.09,1247.67" transform="translate(-462.62 -793.53)"/>
  <path class="p" d="M1190.45,1144.85s-6.67-42.17,28.67-42.17,29.33,42.17,29.33,42.17" transform="translate(-462.62 -793.53)"/>
  <rect class="l" x="714.85" y="343.82" width="83.86" height="266.68" rx="12" ry="12"/>
  <text class="q" transform="translate(764.58 580.18) rotate(-90)">ПР<tspan x="34.52" y="0">О</tspan><tspan x="54.32" y="0">ДВИЖЕНИЕ</tspan></text>
  <text class="r" transform="translate(0 523.31)">ПР<tspan x="43.84" y="0">О</tspan><tspan x="68.99" y="0">ДВИЖЕНИЕ</tspan><tspan x="60.02" y="38.58">в </tspan><tspan x="83.98" y="38.58">Т</tspan><tspan x="102.48" y="38.58">ОП-10</tspan></text>
  <path class="s" d="M957.61,992.78l0.31-.32,0.94-.89c0.83-.76,2.06-1.82,3.64-3.06s3.49-2.67,5.6-4.25,4.4-3.33,6.66-5.29a31.11,31.11,0,0,0,6.27-7c1.85-2.87,3.49-6.56,5.88-10.55,0.59-1,1.26-2,2-3l0.56-.75,0.24-.31,0.13-.15,0.26-.31,0.53-.62c0.17-.21.34-0.41,0.59-0.67l1.43-1.47,1.43-1.27a33.94,33.94,0,0,1,3.06-2.28,38.68,38.68,0,0,1,6.7-3.55,45,45,0,0,1,7.18-2.17,49,49,0,0,1,14.57-.84,75.38,75.38,0,0,1,13.46,2.48c4.22,1.16,8.17,2.52,11.86,3.88s7.09,2.73,10.25,3.91,6.06,2.22,8.65,3.09,4.88,1.5,6.77,2,3.41,0.82,4.44,1l1.59,0.32-0.09,1-1.65,0c-1.07,0-2.65-.11-4.65-0.29s-4.42-.54-7.18-1-5.84-1.17-9.16-2-6.9-1.75-10.63-2.74-7.66-1.93-11.7-2.68a74.88,74.88,0,0,0-12.37-1.37,43.84,43.84,0,0,0-12.25,1.38,32.9,32.9,0,0,0-10.76,4.93,25.05,25.05,0,0,0-2.21,1.77l-1,1c-0.27.31-.56,0.61-0.84,0.9a6.24,6.24,0,0,0-.48.56l-0.51.63-0.26.32-0.13.16,0.07-.09,0,0,0,0.07-0.4.55c-0.52.76-1,1.54-1.5,2.38-1.91,3.32-3.56,7.18-5.89,10.88a33.86,33.86,0,0,1-17.18,14,41.84,41.84,0,0,1-7.23,2,39.74,39.74,0,0,1-4.79.6l-1.29,0H958Z" transform="translate(-462.62 -793.53)"/>
  <g>
    <polygon class="t" points="221.25 82.64 216.22 64.32 49.24 110.11 54.27 128.44 78.67 217.39 245.64 171.59 221.25 82.64"/>
    <text class="u" transform="translate(94.59 164.87) rotate(-15.34)">К<tspan x="13.12" y="0">онкурент2</tspan></text>
    <g>
      <rect class="v" x="525.3" y="903.06" width="24.35" height="7.04" transform="translate(-683.28 -619.07) rotate(-15.34)"/>
      <rect class="v" x="555.3" y="894.83" width="24.35" height="7.04" transform="translate(-680.03 -611.43) rotate(-15.34)"/>
      <rect class="v" x="585.3" y="886.6" width="24.35" height="7.04" transform="translate(-676.79 -603.78) rotate(-15.34)"/>
      <rect class="v" x="615.31" y="878.37" width="24.35" height="7.04" transform="translate(-673.54 -596.14) rotate(-15.34)"/>
      <rect class="v" x="645.31" y="870.14" width="24.35" height="7.04" transform="translate(-670.3 -588.5) rotate(-15.34)"/>
    </g>
  </g>
  <g>
    <rect class="a" x="430.44" y="331.8" width="138" height="138"/>
    <text class="b" transform="translate(455.78 409.81)">Т<tspan x="16.7" y="0">ОП-2</tspan></text>
  </g>
  <g>
    <rect class="a" x="292.44" y="469.8" width="138" height="138"/>
    <rect class="a" x="431.44" y="469.8" width="138" height="138"/>
    <rect class="a" x="568.44" y="331.8" width="138" height="138"/>
    <rect class="a" x="568.44" y="469.8" width="138" height="138"/>
    <text class="b" transform="translate(317.78 547.81)">Т<tspan x="16.7" y="0">ОП-3</tspan></text>
    <rect class="w" x="292.44" y="607.8" width="138" height="38"/>
    <rect class="w" x="154.44" y="607.8" width="138" height="38"/>
    <rect class="w" x="431.44" y="607.8" width="138" height="38"/>
    <rect class="w" x="568.44" y="607.8" width="138" height="38"/>
  </g>
  <g>
    <g>
      <polygon class="c" points="420.02 375.54 425.3 355.32 241.05 307.18 235.77 327.4 210.13 425.56 394.37 473.69 420.02 375.54"/>
      <g>
        <rect class="d" x="713.06" y="1113.71" width="26.78" height="7.75" transform="translate(-156.53 -940.86) rotate(14.64)"/>
        <rect class="d" x="746.17" y="1122.36" width="26.78" height="7.75" transform="translate(-153.27 -948.95) rotate(14.64)"/>
        <rect class="d" x="779.27" y="1131.01" width="26.78" height="7.75" transform="translate(-150.01 -957.04) rotate(14.64)"/>
        <rect class="d" x="812.38" y="1139.66" width="26.78" height="7.75" transform="translate(-146.75 -965.12) rotate(14.64)"/>
        <rect class="d" x="845.49" y="1148.31" width="26.78" height="7.75" transform="translate(-143.49 -973.21) rotate(14.64)"/>
      </g>
    </g>
    <g>
      <path class="x" d="M809.5,1138.68c-2,4.81-3,9.05-4.6,16.19,0,0-4.07,17.92-3.55,32.14,0.1,2.88.3,6.47,0.3,6.47l0,0.53a19.35,19.35,0,0,0,6,3.58c0.42,0.15.83,0.28,1.23,0.4s0.81,0.25,1.24.36a19.35,19.35,0,0,0,7,.45l0.32-.42s2.19-2.85,3.9-5.17c8.46-11.44,15.24-28.52,15.24-28.52,2.7-6.81,4.3-10.85,5.36-16a53.5,53.5,0,0,0,.87-5.86l-31.39-8.27C810.62,1136.14,810,1137.52,809.5,1138.68Z" transform="translate(-462.62 -793.53)"/>
      <path class="y" d="M811.43,1134.6l31.39,8.27c0.72-7.71.17-19.49-6.26-34.14C822.12,1117.71,815,1127.77,811.43,1134.6Z" transform="translate(-462.62 -793.53)"/>
      <path class="y" d="M809.3,1198.11L809,1198l-0.32-.12a20.37,20.37,0,0,1-7-3.91l-1.69,6.53s1.31,3.17,6.83,4.75,8.32-.26,8.32-0.26l2.14-6.4A20.37,20.37,0,0,1,809.3,1198.11Z" transform="translate(-462.62 -793.53)"/>
      <polygon class="y" points="374.73 369.27 385.22 386.92 370.14 420.63 367.6 419.88 368.43 409.18 360.42 397.31 374.73 369.27"/>
      <polygon class="y" points="342.15 359.63 323.74 368.72 318.04 405.21 320.58 405.96 325.71 396.53 338.89 390.94 342.15 359.63"/>
      <circle class="z" cx="818.65" cy="1165.88" r="10.91" transform="translate(-994.25 826.46) rotate(-73.51)"/>
      <circle class="z" cx="826.56" cy="1139.13" r="7.91" transform="translate(-962.93 814.89) rotate(-73.51)"/>
      <polygon class="aa" points="350.32 392.59 348.76 408.38 343.35 417.98 343.54 407.15 350.32 392.59"/>
    </g>
    <text class="b" transform="translate(240.11 413.37) rotate(14.64)">Л<tspan x="21.24" y="0">эндинг</tspan></text>
  </g>
  <path class="ab" d="M959.18,1050.54s0.52-.52,1.53-1.42,2.5-2.21,4.45-3.79,4.41-3.36,7.26-5.36,6.15-4.07,9.82-6.21,7.71-4.34,12.09-6.45c2.17-1.09,4.47-2.07,6.78-3.15s4.74-2,7.2-3c4.92-2,10.08-3.82,15.38-5.53s10.77-3.21,16.25-4.65,11-2.77,16.37-4.1,10.67-2.69,15.77-4,10-2.7,14.61-4.07a90.33,90.33,0,0,0,12.73-4.52,35.39,35.39,0,0,0,9.44-6.26,24.88,24.88,0,0,0,5.29-6.9,19.19,19.19,0,0,0,1.86-5.24,13.93,13.93,0,0,0,.22-1.44l0.06-.5,1,0.11-0.09.52a14.8,14.8,0,0,1-.3,1.51,21.3,21.3,0,0,1-2.1,5.39,24.2,24.2,0,0,1-2.27,3.43,27.86,27.86,0,0,1-3.25,3.57,38.65,38.65,0,0,1-9.59,6.38,91.06,91.06,0,0,1-12.73,4.84l-3.49,1.1-3.55,1.2c-2.4.78-4.83,1.68-7.29,2.59-4.92,1.85-9.94,3.92-15,6.19s-10.08,4.73-15.11,7.2-10,5-15,7.39-9.81,4.7-14.56,6.84-9.35,4.19-13.77,6l-3.26,1.37-3.19,1.26c-2.08.85-4.13,1.6-6.08,2.36-3.94,1.42-7.55,2.76-10.82,3.8s-6.12,1.94-8.53,2.61-4.32,1.17-5.66,1.45-2,.43-2,0.43Z" transform="translate(-462.62 -793.53)"/>
  <g>
    <line class="ac" x1="192.33" y1="153.85" x2="260.15" y2="187.16"/>
    <path class="ac" d="M717,992.49L689.57,979c-4.64-2.28-7.41-6.22-6.16-8.77l7.39-15c1.25-2.55,6.07-2.77,10.71-.49l27.41,13.46" transform="translate(-462.62 -793.53)"/>
  </g>
  <g>
    <polygon class="t" points="150.92 245.84 147.41 233.03 30.69 265.05 34.2 277.86 51.25 340.04 167.97 308.02 150.92 245.84"/>
    <text class="ad" transform="translate(51.47 306.32) rotate(-15.34)">К<tspan x="11.81" y="0">онкурент1</tspan></text>
    <g>
      <rect class="v" x="502.69" y="1058.17" width="17.02" height="4.92" transform="translate(-724.96 -620.53) rotate(-15.34)"/>
      <rect class="v" x="523.67" y="1052.42" width="17.02" height="4.92" transform="translate(-722.69 -615.19) rotate(-15.34)"/>
      <rect class="v" x="544.64" y="1046.66" width="17.02" height="4.92" transform="translate(-720.42 -609.84) rotate(-15.34)"/>
      <rect class="v" x="565.62" y="1040.91" width="17.02" height="4.92" transform="matrix(0.96, -0.26, 0.26, 0.96, -718.15, -604.5)"/>
      <rect class="v" x="586.59" y="1035.16" width="17.02" height="4.92" transform="translate(-715.89 -599.16) rotate(-15.34)"/>
    </g>
  </g>
  <path d="M646.56,1088.51c1.1,1.83,10.58-10.7,15.41-2.57a16.26,16.26,0,0,1-5.43.83c2.51,8,11.51-4.25,12.34-4.21,3.63,0.19,1.92,1.87,3.26,2.26q-0.06,1.75,0,3.5a25.44,25.44,0,0,1,6.86,1.49c-5.54,2-6.47,2.44-9.49,4.71,0.21-.16,3.43,3.31,3.49,3.75-11.5,2.74-10.84-5.36-19.16-5.2-2.38,0-.82,5.63-3.72,5.64-5.31,0-4.24-4.18-6.45-4.33-5.22-.36-5.72,2.52-10.71,3.71-1.53.37-.73-4.06-2.67-4-0.79,0-5.13,2.77-3.09,3.3,2.46,0.64-7.45.75-5.18,0.11,6.07-1.71-5.52-2.66-3.45-2.12,5,1.27-6.92,3.71-4.44,2.85,0.22-.08-1.92-2.95-3-3.12-0.37-.06-0.77,3.62-2.09,3.58-0.78,0-4.27-2.68-3.26-2.78-1.07.11-5.24,5.23-5.87,0.8q2.57,0.76,1.6-1c-2.17.05-6,4.48-6.81,1.52,6-1.28-4.9,1.49-2.44,1.53-1.51,0-3.61-2.1-6.13-2.2,0.11-1.56,3.47.47,3.7-.94-0.9-1.24-5.25.66-6.26,0.66,2.37-1.45,2.79-1.17-1.43-1.22,0.07-1.5,12.57-4.91,13.49-1.46,2.3-.15,1.19-3.47,2.79-3.46,0.82,0,3.52,2.15,2.48,2.46,2-.61,4.49-6.35,6.5.16,3-.22,1.55-3.56,5.22-4.23,1.91-.35,1.13,3.72,2.85,3.66s1.2-4.66,2.86-4.3c1.17,0.25,6.4,3.69,6,3.73,2-.18,1.88-4.67,5.18-5,3.53-.31,3.13,4.27,5.36,4.18,3.35-.15,6.46-11.76,11.58-2.47a8.16,8.16,0,0,0-4.69.31c0.39,1.76,4,.52,4.74-0.16C646.74,1088.8,646.32,1088.75,646.56,1088.51Z" transform="translate(-462.62 -793.53)"/>
</svg>
